<?xml version="1.0" encoding="UTF-8" standalone="no"?><!DOCTYPE svg PUBLIC "-//W3C//DTD SVG 1.1//EN" "http://www.w3.org/Graphics/SVG/1.1/DTD/svg11.dtd"><svg width="100%" height="100%" viewBox="0 0 83 93" version="1.1" xmlns="http://www.w3.org/2000/svg" xmlns:xlink="http://www.w3.org/1999/xlink" xml:space="preserve" xmlns:serif="http://www.serif.com/" style="fill-rule:evenodd;clip-rule:evenodd;stroke-linecap:round;stroke-linejoin:round;stroke-miterlimit:1.5;"><rect x="18.733" y="40.113" width="44.966" height="44.966" style="fill:none;stroke:#000;stroke-width:1.56px;"/><path d="M18.733,84.886l44.966,-44.773" style="fill:none;stroke:#000;stroke-width:1.56px;"/><path d="M63.699,84.886l-44.966,-44.773" style="fill:none;stroke:#000;stroke-width:1.56px;"/><path d="M18.733,40.113l22.483,-22.483l22.483,22.483" style="fill:none;stroke:#000;stroke-width:1.56px;"/><circle cx="18.733" cy="40.113" r="1.867" style="fill:#00f;"/><circle cx="63.699" cy="40.113" r="1.867" style="fill:#00f;"/><circle cx="41.216" cy="17.63" r="1.867" style="fill:#00f;"/><circle cx="18.733" cy="84.886" r="1.867" style="fill:#00f;"/><circle cx="63.699" cy="84.886" r="1.867" style="fill:#00f;"/><path d="M6.345,79.698l0,-0.586c1.502,0 2.64,-0.4 3.415,-1.2c0.214,0 0.339,0.025 0.375,0.074c0.037,0.048 0.055,0.186 0.055,0.412l0,10.519c0,0.372 0.092,0.616 0.275,0.732c0.183,0.116 0.674,0.174 1.474,0.174l0.595,0l0,0.577c-0.439,-0.036 -1.453,-0.055 -3.039,-0.055c-1.587,0 -2.598,0.019 -3.031,0.055l0,-0.577l0.595,0c0.788,0 1.276,-0.056 1.465,-0.169c0.189,-0.113 0.284,-0.359 0.284,-0.737l0,-9.714c-0.653,0.33 -1.474,0.495 -2.463,0.495Z" style="fill-rule:nonzero;"/><path d="M37.05,10.031l0,-0.577l5.759,-8.798c0.097,-0.153 0.223,-0.226 0.375,-0.22c0.14,0 0.226,0.027 0.256,0.082c0.031,0.055 0.046,0.189 0.046,0.403l0,8.533l1.877,0l0,0.577l-1.877,0l0,1.629c0,0.36 0.075,0.598 0.225,0.714c0.149,0.116 0.547,0.174 1.194,0.174l0.394,0l0,0.577c-0.513,-0.037 -1.361,-0.055 -2.545,-0.055c-1.178,0 -2.024,0.018 -2.536,0.055l0,-0.577l0.393,0c0.647,0 1.047,-0.056 1.2,-0.169c0.152,-0.113 0.229,-0.353 0.229,-0.719l0,-1.629l-4.99,0Zm0.531,-0.577l4.569,0l0,-6.995l-4.569,6.995Z" style="fill-rule:nonzero;"/><path d="M5.613,42.606c0,-0.372 0.1,-0.63 0.302,-0.774c0.201,-0.143 0.409,-0.215 0.622,-0.215c0.287,0 0.515,0.09 0.682,0.27c0.168,0.18 0.252,0.396 0.252,0.646c0,0.25 -0.084,0.465 -0.252,0.645c-0.167,0.18 -0.395,0.27 -0.682,0.27c-0.14,0 -0.247,-0.012 -0.32,-0.036c0.165,0.574 0.499,1.068 1.002,1.483c0.504,0.415 1.088,0.622 1.754,0.622c0.836,0 1.504,-0.405 2.005,-1.217c0.299,-0.525 0.448,-1.383 0.448,-2.573c0,-1.05 -0.113,-1.837 -0.338,-2.362c-0.348,-0.799 -0.879,-1.199 -1.593,-1.199c-1.014,0 -1.819,0.436 -2.417,1.309c-0.074,0.11 -0.153,0.168 -0.239,0.174c-0.122,0 -0.196,-0.035 -0.224,-0.105c-0.027,-0.071 -0.041,-0.2 -0.041,-0.389l0,-5.549c0,-0.299 0.061,-0.448 0.183,-0.448c0.049,0 0.125,0.018 0.229,0.055c0.787,0.348 1.617,0.525 2.49,0.531c0.897,0 1.749,-0.183 2.555,-0.55c0.061,-0.036 0.109,-0.054 0.146,-0.054c0.122,0 0.186,0.07 0.192,0.21c0,0.049 -0.05,0.145 -0.151,0.289c-0.1,0.143 -0.258,0.308 -0.471,0.494c-0.214,0.186 -0.458,0.368 -0.733,0.545c-0.274,0.177 -0.612,0.325 -1.011,0.444c-0.4,0.119 -0.82,0.178 -1.259,0.178c-0.525,0 -1.056,-0.082 -1.593,-0.247l0,3.653c0.647,-0.635 1.44,-0.952 2.38,-0.952c1.001,0 1.846,0.403 2.536,1.208c0.69,0.806 1.035,1.77 1.035,2.893c0,1.178 -0.408,2.17 -1.223,2.976c-0.814,0.806 -1.771,1.208 -2.87,1.208c-1.001,0 -1.817,-0.357 -2.449,-1.071c-0.631,-0.714 -0.947,-1.501 -0.947,-2.362Z" style="fill-rule:nonzero;"/><path d="M69.165,43.101c0,-0.373 0.107,-0.647 0.32,-0.824c0.214,-0.177 0.458,-0.266 0.733,-0.266c0.287,0 0.532,0.093 0.737,0.279c0.204,0.186 0.306,0.441 0.306,0.765c0,0.348 -0.12,0.619 -0.361,0.815c-0.241,0.195 -0.533,0.268 -0.874,0.219c0.299,0.501 0.724,0.864 1.277,1.09c0.552,0.226 1.085,0.338 1.597,0.338c0.537,0 1.024,-0.231 1.461,-0.695c0.436,-0.464 0.654,-1.264 0.654,-2.399c0,-0.964 -0.188,-1.724 -0.563,-2.28c-0.375,-0.555 -0.932,-0.833 -1.671,-0.833l-0.824,0c-0.189,0 -0.311,-0.009 -0.366,-0.027c-0.055,-0.019 -0.082,-0.08 -0.082,-0.183c0,-0.122 0.094,-0.196 0.284,-0.22c0.189,0 0.433,-0.018 0.732,-0.055c0.726,-0.024 1.282,-0.351 1.666,-0.98c0.348,-0.586 0.522,-1.297 0.522,-2.133c0,-0.763 -0.182,-1.304 -0.545,-1.625c-0.363,-0.32 -0.779,-0.481 -1.249,-0.481c-0.44,0 -0.901,0.092 -1.383,0.275c-0.482,0.183 -0.854,0.479 -1.117,0.888c0.775,0 1.163,0.315 1.163,0.943c0,0.275 -0.087,0.502 -0.261,0.682c-0.174,0.18 -0.404,0.27 -0.691,0.27c-0.275,0 -0.504,-0.087 -0.687,-0.261c-0.183,-0.174 -0.275,-0.41 -0.275,-0.709c0,-0.714 0.319,-1.318 0.957,-1.813c0.638,-0.494 1.427,-0.741 2.367,-0.741c0.928,0 1.735,0.244 2.421,0.732c0.687,0.488 1.03,1.108 1.03,1.859c0,0.738 -0.244,1.409 -0.732,2.014c-0.488,0.604 -1.12,1.031 -1.895,1.281c0.952,0.19 1.712,0.606 2.279,1.25c0.568,0.644 0.852,1.36 0.852,2.147c0,0.977 -0.385,1.823 -1.154,2.541c-0.769,0.717 -1.715,1.075 -2.838,1.075c-1.037,0 -1.928,-0.28 -2.673,-0.842c-0.745,-0.561 -1.117,-1.26 -1.117,-2.096Z" style="fill-rule:nonzero;"/><path d="M69.311,90.4c0,-0.226 0.011,-0.372 0.032,-0.439c0.022,-0.067 0.081,-0.153 0.179,-0.257l3.598,-4.01c1.312,-1.477 1.968,-2.859 1.968,-4.147c0,-0.836 -0.218,-1.553 -0.654,-2.151c-0.437,-0.599 -1.055,-0.898 -1.854,-0.898c-0.549,0 -1.056,0.168 -1.52,0.504c-0.464,0.336 -0.803,0.802 -1.016,1.401c0.036,-0.013 0.119,-0.019 0.247,-0.019c0.311,0 0.554,0.098 0.728,0.293c0.174,0.196 0.261,0.424 0.261,0.687c0,0.336 -0.109,0.584 -0.325,0.746c-0.217,0.162 -0.432,0.243 -0.646,0.243c-0.085,0 -0.184,-0.009 -0.297,-0.028c-0.113,-0.018 -0.258,-0.114 -0.435,-0.288c-0.177,-0.174 -0.266,-0.417 -0.266,-0.728c0,-0.873 0.332,-1.657 0.994,-2.353c0.662,-0.696 1.5,-1.044 2.513,-1.044c1.147,0 2.098,0.341 2.852,1.021c0.754,0.681 1.13,1.552 1.13,2.614c0,0.372 -0.056,0.728 -0.169,1.067c-0.113,0.338 -0.244,0.639 -0.394,0.901c-0.149,0.263 -0.425,0.605 -0.828,1.026c-0.403,0.421 -0.766,0.781 -1.09,1.08c-0.323,0.299 -0.848,0.766 -1.574,1.401l-1.987,1.932l3.378,0c1.099,0 1.691,-0.049 1.776,-0.147c0.122,-0.177 0.26,-0.732 0.412,-1.666l0.476,0l-0.531,3.259l-6.958,0Z" style="fill-rule:nonzero;"/></svg>