<?xml version="1.0" encoding="UTF-8" standalone="no"?><!DOCTYPE svg PUBLIC "-//W3C//DTD SVG 1.1//EN" "http://www.w3.org/Graphics/SVG/1.1/DTD/svg11.dtd"><svg width="100%" height="100%" viewBox="0 0 344 387" version="1.1" xmlns="http://www.w3.org/2000/svg" xmlns:xlink="http://www.w3.org/1999/xlink" xml:space="preserve" xmlns:serif="http://www.serif.com/" style="fill-rule:evenodd;clip-rule:evenodd;stroke-linecap:round;stroke-linejoin:round;stroke-miterlimit:1.5;"><rect x="78.053" y="167.139" width="187.358" height="187.358" style="fill:none;stroke:#000;stroke-width:6.51px;"/><path d="M78.053,353.692l187.358,-186.553" style="fill:none;stroke:#000;stroke-width:6.51px;"/><path d="M265.411,353.692l-187.358,-186.553" style="fill:none;stroke:#000;stroke-width:6.51px;"/><path d="M78.053,167.139l93.679,-93.679l93.679,93.679" style="fill:none;stroke:#000;stroke-width:6.51px;"/><circle cx="78.053" cy="167.139" r="7.778" style="fill:#00f;"/><circle cx="265.411" cy="167.139" r="7.778" style="fill:#00f;"/><circle cx="171.732" cy="73.46" r="7.778" style="fill:#00f;"/><circle cx="78.053" cy="353.692" r="7.778" style="fill:#00f;"/><circle cx="265.411" cy="353.692" r="7.778" style="fill:#00f;"/><path d="M26.438,332.073l0,-2.441c6.256,0 10.999,-1.666 14.229,-4.997c0.89,0 1.411,0.102 1.564,0.305c0.152,0.203 0.229,0.776 0.229,1.717l0,43.83c0,1.552 0.381,2.569 1.144,3.052c0.763,0.483 2.81,0.725 6.142,0.725l2.479,0l0,2.403c-1.831,-0.152 -6.052,-0.229 -12.664,-0.229c-6.613,0 -10.822,0.077 -12.627,0.229l0,-2.403l2.479,0c3.281,0 5.316,-0.235 6.104,-0.706c0.788,-0.47 1.182,-1.494 1.182,-3.071l0,-40.473c-2.721,1.373 -6.141,2.059 -10.261,2.059Z" style="fill-rule:nonzero;"/><path d="M154.375,41.794l0,-2.403l23.995,-36.66c0.407,-0.635 0.928,-0.941 1.564,-0.915c0.585,0 0.941,0.114 1.068,0.343c0.127,0.229 0.191,0.788 0.191,1.679l0,35.553l7.82,0l0,2.403l-7.82,0l0,6.79c0,1.5 0.311,2.492 0.934,2.975c0.623,0.484 2.283,0.725 4.978,0.725l1.641,0l0,2.404c-2.137,-0.153 -5.671,-0.229 -10.605,-0.229c-4.908,0 -8.431,0.076 -10.567,0.229l0,-2.404l1.64,0c2.696,0 4.362,-0.235 4.998,-0.705c0.635,-0.471 0.953,-1.469 0.953,-2.995l0,-6.79l-20.79,0Zm2.213,-2.403l19.035,0l0,-29.145l-19.035,29.145Z" style="fill-rule:nonzero;"/><path d="M23.386,177.525c0,-1.551 0.42,-2.625 1.259,-3.223c0.839,-0.598 1.704,-0.896 2.594,-0.896c1.195,0 2.143,0.375 2.842,1.125c0.699,0.75 1.049,1.647 1.049,2.689c0,1.043 -0.35,1.939 -1.049,2.69c-0.699,0.75 -1.647,1.125 -2.842,1.125c-0.585,0 -1.03,-0.051 -1.335,-0.153c0.687,2.391 2.079,4.451 4.177,6.18c2.098,1.73 4.533,2.594 7.305,2.594c3.484,0 6.269,-1.691 8.354,-5.073c1.246,-2.187 1.87,-5.761 1.87,-10.72c0,-4.374 -0.471,-7.654 -1.412,-9.842c-1.45,-3.331 -3.662,-4.997 -6.637,-4.997c-4.222,0 -7.579,1.819 -10.071,5.455c-0.305,0.458 -0.636,0.7 -0.992,0.725c-0.509,0 -0.82,-0.146 -0.935,-0.439c-0.114,-0.292 -0.171,-0.833 -0.171,-1.621l0,-23.117c0,-1.246 0.254,-1.869 0.763,-1.869c0.203,0 0.521,0.076 0.953,0.229c3.281,1.449 6.74,2.187 10.376,2.212c3.739,0 7.286,-0.763 10.643,-2.289c0.255,-0.152 0.458,-0.228 0.611,-0.228c0.508,0 0.775,0.292 0.801,0.877c0,0.203 -0.21,0.604 -0.63,1.202c-0.419,0.597 -1.074,1.284 -1.964,2.059c-0.89,0.776 -1.908,1.533 -3.052,2.27c-1.145,0.738 -2.55,1.354 -4.215,1.85c-1.666,0.496 -3.414,0.744 -5.246,0.744c-2.187,0 -4.399,-0.343 -6.637,-1.03l0,15.221c2.696,-2.645 6.002,-3.967 9.918,-3.967c4.171,0 7.693,1.678 10.567,5.035c2.874,3.357 4.31,7.375 4.31,12.054c0,4.909 -1.697,9.041 -5.092,12.398c-3.395,3.357 -7.382,5.036 -11.959,5.036c-4.171,0 -7.572,-1.488 -10.205,-4.464c-2.632,-2.975 -3.948,-6.256 -3.948,-9.842Z" style="fill-rule:nonzero;"/><path d="M288.187,179.585c0,-1.551 0.445,-2.695 1.335,-3.433c0.89,-0.737 1.908,-1.106 3.052,-1.106c1.195,0 2.219,0.388 3.071,1.163c0.852,0.776 1.278,1.838 1.278,3.186c0,1.449 -0.502,2.581 -1.507,3.395c-1.004,0.814 -2.219,1.119 -3.643,0.915c1.246,2.086 3.02,3.599 5.322,4.54c2.301,0.941 4.52,1.411 6.656,1.411c2.238,0 4.266,-0.966 6.085,-2.899c1.818,-1.933 2.727,-5.264 2.727,-9.994c0,-4.019 -0.782,-7.185 -2.346,-9.499c-1.564,-2.314 -3.885,-3.471 -6.962,-3.471l-3.433,0c-0.788,0 -1.297,-0.039 -1.526,-0.115c-0.229,-0.076 -0.343,-0.33 -0.343,-0.763c0,-0.508 0.394,-0.814 1.182,-0.915c0.789,0 1.806,-0.077 3.052,-0.229c3.027,-0.102 5.341,-1.463 6.943,-4.082c1.45,-2.441 2.174,-5.404 2.174,-8.888c0,-3.179 -0.756,-5.436 -2.269,-6.771c-1.514,-1.335 -3.249,-2.003 -5.208,-2.003c-1.831,0 -3.751,0.381 -5.76,1.144c-2.009,0.763 -3.56,1.997 -4.654,3.701c3.23,0 4.845,1.309 4.845,3.929c0,1.144 -0.362,2.092 -1.087,2.842c-0.725,0.75 -1.685,1.125 -2.88,1.125c-1.145,0 -2.098,-0.362 -2.861,-1.087c-0.763,-0.725 -1.145,-1.71 -1.145,-2.956c0,-2.976 1.329,-5.494 3.987,-7.554c2.657,-2.06 5.944,-3.089 9.861,-3.089c3.865,0 7.229,1.017 10.09,3.051c2.861,2.035 4.291,4.616 4.291,7.744c0,3.077 -1.017,5.875 -3.052,8.392c-2.034,2.518 -4.666,4.298 -7.896,5.341c3.967,0.788 7.133,2.524 9.498,5.207c2.366,2.683 3.548,5.665 3.548,8.946c0,4.069 -1.602,7.597 -4.806,10.585c-3.205,2.989 -7.147,4.483 -11.826,4.483c-4.323,0 -8.036,-1.17 -11.139,-3.51c-3.102,-2.34 -4.654,-5.251 -4.654,-8.736Z" style="fill-rule:nonzero;"/><path d="M288.798,376.667c0,-0.941 0.044,-1.551 0.133,-1.831c0.089,-0.28 0.337,-0.636 0.744,-1.068l14.992,-16.708c5.467,-6.155 8.201,-11.915 8.201,-17.281c0,-3.484 -0.909,-6.472 -2.727,-8.964c-1.819,-2.493 -4.393,-3.739 -7.725,-3.739c-2.289,0 -4.4,0.7 -6.332,2.098c-1.933,1.399 -3.345,3.344 -4.235,5.837c0.153,-0.051 0.496,-0.077 1.03,-0.077c1.297,0 2.308,0.407 3.033,1.221c0.725,0.814 1.087,1.768 1.087,2.861c0,1.399 -0.451,2.435 -1.354,3.109c-0.903,0.674 -1.799,1.011 -2.689,1.011c-0.356,0 -0.77,-0.038 -1.24,-0.114c-0.471,-0.077 -1.075,-0.477 -1.812,-1.202c-0.738,-0.725 -1.106,-1.736 -1.106,-3.033c0,-3.636 1.379,-6.904 4.139,-9.803c2.759,-2.9 6.249,-4.349 10.471,-4.349c4.781,0 8.742,1.418 11.883,4.253c3.14,2.836 4.711,6.466 4.711,10.891c0,1.551 -0.235,3.033 -0.706,4.444c-0.47,1.412 -1.017,2.664 -1.64,3.758c-0.623,1.093 -1.774,2.517 -3.453,4.272c-1.678,1.755 -3.191,3.255 -4.539,4.502c-1.348,1.246 -3.535,3.191 -6.561,5.836l-8.278,8.049l14.076,0c4.578,0 7.045,-0.203 7.401,-0.61c0.508,-0.738 1.08,-3.052 1.716,-6.943l1.984,0l-2.213,13.58l-28.991,0Z" style="fill-rule:nonzero;"/></svg>